<mxfile host="app.diagrams.net" agent="Mozilla/5.0 (Windows NT 10.0; Win64; x64) AppleWebKit/537.36 (KHTML, like Gecko) Chrome/127.0.0.0 Safari/537.36" version="24.7.7">
  <diagram name="Página-1" id="0-teOQYh23uvKYZ7HRWc">
    <mxGraphModel dx="880" dy="460" grid="1" gridSize="10" guides="1" tooltips="1" connect="1" arrows="1" fold="1" page="1" pageScale="1" pageWidth="827" pageHeight="1169" math="0" shadow="0">
      <root>
        <mxCell id="0" />
        <mxCell id="1" parent="0" />
        <mxCell id="Owg_yIhiABoJmYMIohiS-2" value="&lt;h1 style=&quot;margin-top: 0px;&quot;&gt;Modelagem de Dados&amp;nbsp;&lt;/h1&gt;&lt;div&gt;Entidade Relacionamento:&lt;/div&gt;" style="text;html=1;whiteSpace=wrap;overflow=hidden;rounded=0;" parent="1" vertex="1">
          <mxGeometry x="20" y="40" width="180" height="120" as="geometry" />
        </mxCell>
        <mxCell id="Owg_yIhiABoJmYMIohiS-6" value="" style="endArrow=none;html=1;rounded=0;exitX=1;exitY=0.5;exitDx=0;exitDy=0;entryX=0;entryY=0.5;entryDx=0;entryDy=0;" parent="1" edge="1">
          <mxGeometry width="50" height="50" relative="1" as="geometry">
            <mxPoint x="160" y="220" as="sourcePoint" />
            <mxPoint x="650" y="220" as="targetPoint" />
          </mxGeometry>
        </mxCell>
        <mxCell id="Owg_yIhiABoJmYMIohiS-7" value="" style="rounded=0;whiteSpace=wrap;html=1;" parent="1" vertex="1">
          <mxGeometry x="337" y="190" width="115" height="60" as="geometry" />
        </mxCell>
        <mxCell id="Owg_yIhiABoJmYMIohiS-12" value="0,n" style="text;html=1;align=center;verticalAlign=middle;whiteSpace=wrap;rounded=0;" parent="1" vertex="1">
          <mxGeometry x="287" y="200" width="60" height="30" as="geometry" />
        </mxCell>
        <mxCell id="Owg_yIhiABoJmYMIohiS-13" value="1,n" style="text;html=1;align=center;verticalAlign=middle;whiteSpace=wrap;rounded=0;" parent="1" vertex="1">
          <mxGeometry x="441" y="200" width="60" height="30" as="geometry" />
        </mxCell>
        <mxCell id="Owg_yIhiABoJmYMIohiS-22" value="" style="endArrow=none;html=1;rounded=0;entryX=0.25;entryY=1;entryDx=0;entryDy=0;startArrow=oval;startFill=1;" parent="1" target="Owg_yIhiABoJmYMIohiS-7" edge="1">
          <mxGeometry width="50" height="50" relative="1" as="geometry">
            <mxPoint x="365" y="290" as="sourcePoint" />
            <mxPoint x="430" y="230" as="targetPoint" />
          </mxGeometry>
        </mxCell>
        <mxCell id="Owg_yIhiABoJmYMIohiS-23" value="id" style="edgeLabel;html=1;align=center;verticalAlign=middle;resizable=0;points=[];" parent="Owg_yIhiABoJmYMIohiS-22" vertex="1" connectable="0">
          <mxGeometry x="0.0667" relative="1" as="geometry">
            <mxPoint as="offset" />
          </mxGeometry>
        </mxCell>
        <mxCell id="Owg_yIhiABoJmYMIohiS-24" value="" style="endArrow=none;html=1;rounded=0;entryX=0.5;entryY=1;entryDx=0;entryDy=0;startArrow=oval;startFill=0;" parent="1" target="Owg_yIhiABoJmYMIohiS-7" edge="1">
          <mxGeometry width="50" height="50" relative="1" as="geometry">
            <mxPoint x="395" y="310" as="sourcePoint" />
            <mxPoint x="310" y="260" as="targetPoint" />
          </mxGeometry>
        </mxCell>
        <mxCell id="Owg_yIhiABoJmYMIohiS-25" value="nome" style="edgeLabel;html=1;align=center;verticalAlign=middle;resizable=0;points=[];" parent="Owg_yIhiABoJmYMIohiS-24" vertex="1" connectable="0">
          <mxGeometry x="-0.0389" y="-2" relative="1" as="geometry">
            <mxPoint as="offset" />
          </mxGeometry>
        </mxCell>
        <mxCell id="Owg_yIhiABoJmYMIohiS-26" value="" style="endArrow=none;html=1;rounded=0;entryX=0.75;entryY=1;entryDx=0;entryDy=0;startArrow=oval;startFill=0;" parent="1" target="Owg_yIhiABoJmYMIohiS-7" edge="1">
          <mxGeometry width="50" height="50" relative="1" as="geometry">
            <mxPoint x="425" y="330" as="sourcePoint" />
            <mxPoint x="310" y="260" as="targetPoint" />
          </mxGeometry>
        </mxCell>
        <mxCell id="Owg_yIhiABoJmYMIohiS-27" value="fk_idTaref." style="edgeLabel;html=1;align=center;verticalAlign=middle;resizable=0;points=[];" parent="Owg_yIhiABoJmYMIohiS-26" vertex="1" connectable="0">
          <mxGeometry x="-0.2792" relative="1" as="geometry">
            <mxPoint as="offset" />
          </mxGeometry>
        </mxCell>
        <mxCell id="Owg_yIhiABoJmYMIohiS-41" value="" style="endArrow=none;html=1;rounded=0;startArrow=oval;startFill=0;entryX=0.75;entryY=0;entryDx=0;entryDy=0;" parent="1" target="Owg_yIhiABoJmYMIohiS-7" edge="1">
          <mxGeometry width="50" height="50" relative="1" as="geometry">
            <mxPoint x="425" y="140" as="sourcePoint" />
            <mxPoint x="425" y="140" as="targetPoint" />
          </mxGeometry>
        </mxCell>
        <mxCell id="Owg_yIhiABoJmYMIohiS-42" value="fk_idUsu" style="edgeLabel;html=1;align=center;verticalAlign=middle;resizable=0;points=[];" parent="Owg_yIhiABoJmYMIohiS-41" vertex="1" connectable="0">
          <mxGeometry x="-0.12" relative="1" as="geometry">
            <mxPoint as="offset" />
          </mxGeometry>
        </mxCell>
        <mxCell id="Owg_yIhiABoJmYMIohiS-43" value="Table Usuário" style="shape=table;startSize=30;container=1;collapsible=1;childLayout=tableLayout;fixedRows=1;rowLines=0;fontStyle=1;align=center;resizeLast=1;html=1;whiteSpace=wrap;" parent="1" vertex="1">
          <mxGeometry x="80" y="510" width="180" height="150" as="geometry" />
        </mxCell>
        <mxCell id="Owg_yIhiABoJmYMIohiS-44" value="" style="shape=tableRow;horizontal=0;startSize=0;swimlaneHead=0;swimlaneBody=0;fillColor=none;collapsible=0;dropTarget=0;points=[[0,0.5],[1,0.5]];portConstraint=eastwest;top=0;left=0;right=0;bottom=0;html=1;" parent="Owg_yIhiABoJmYMIohiS-43" vertex="1">
          <mxGeometry y="30" width="180" height="30" as="geometry" />
        </mxCell>
        <mxCell id="Owg_yIhiABoJmYMIohiS-45" value="PK,FK1" style="shape=partialRectangle;connectable=0;fillColor=none;top=0;left=0;bottom=0;right=0;fontStyle=1;overflow=hidden;html=1;whiteSpace=wrap;" parent="Owg_yIhiABoJmYMIohiS-44" vertex="1">
          <mxGeometry width="60" height="30" as="geometry">
            <mxRectangle width="60" height="30" as="alternateBounds" />
          </mxGeometry>
        </mxCell>
        <mxCell id="Owg_yIhiABoJmYMIohiS-46" value="Row 1" style="shape=partialRectangle;connectable=0;fillColor=none;top=0;left=0;bottom=0;right=0;align=left;spacingLeft=6;fontStyle=5;overflow=hidden;html=1;whiteSpace=wrap;" parent="Owg_yIhiABoJmYMIohiS-44" vertex="1">
          <mxGeometry x="60" width="120" height="30" as="geometry">
            <mxRectangle width="120" height="30" as="alternateBounds" />
          </mxGeometry>
        </mxCell>
        <mxCell id="Owg_yIhiABoJmYMIohiS-47" value="" style="shape=tableRow;horizontal=0;startSize=0;swimlaneHead=0;swimlaneBody=0;fillColor=none;collapsible=0;dropTarget=0;points=[[0,0.5],[1,0.5]];portConstraint=eastwest;top=0;left=0;right=0;bottom=1;html=1;" parent="Owg_yIhiABoJmYMIohiS-43" vertex="1">
          <mxGeometry y="60" width="180" height="30" as="geometry" />
        </mxCell>
        <mxCell id="Owg_yIhiABoJmYMIohiS-48" value="PK,FK2" style="shape=partialRectangle;connectable=0;fillColor=none;top=0;left=0;bottom=0;right=0;fontStyle=1;overflow=hidden;html=1;whiteSpace=wrap;" parent="Owg_yIhiABoJmYMIohiS-47" vertex="1">
          <mxGeometry width="60" height="30" as="geometry">
            <mxRectangle width="60" height="30" as="alternateBounds" />
          </mxGeometry>
        </mxCell>
        <mxCell id="Owg_yIhiABoJmYMIohiS-49" value="Row 2" style="shape=partialRectangle;connectable=0;fillColor=none;top=0;left=0;bottom=0;right=0;align=left;spacingLeft=6;fontStyle=5;overflow=hidden;html=1;whiteSpace=wrap;" parent="Owg_yIhiABoJmYMIohiS-47" vertex="1">
          <mxGeometry x="60" width="120" height="30" as="geometry">
            <mxRectangle width="120" height="30" as="alternateBounds" />
          </mxGeometry>
        </mxCell>
        <mxCell id="Owg_yIhiABoJmYMIohiS-50" value="" style="shape=tableRow;horizontal=0;startSize=0;swimlaneHead=0;swimlaneBody=0;fillColor=none;collapsible=0;dropTarget=0;points=[[0,0.5],[1,0.5]];portConstraint=eastwest;top=0;left=0;right=0;bottom=0;html=1;" parent="Owg_yIhiABoJmYMIohiS-43" vertex="1">
          <mxGeometry y="90" width="180" height="30" as="geometry" />
        </mxCell>
        <mxCell id="Owg_yIhiABoJmYMIohiS-51" value="" style="shape=partialRectangle;connectable=0;fillColor=none;top=0;left=0;bottom=0;right=0;editable=1;overflow=hidden;html=1;whiteSpace=wrap;" parent="Owg_yIhiABoJmYMIohiS-50" vertex="1">
          <mxGeometry width="60" height="30" as="geometry">
            <mxRectangle width="60" height="30" as="alternateBounds" />
          </mxGeometry>
        </mxCell>
        <mxCell id="Owg_yIhiABoJmYMIohiS-52" value="Row 3" style="shape=partialRectangle;connectable=0;fillColor=none;top=0;left=0;bottom=0;right=0;align=left;spacingLeft=6;overflow=hidden;html=1;whiteSpace=wrap;" parent="Owg_yIhiABoJmYMIohiS-50" vertex="1">
          <mxGeometry x="60" width="120" height="30" as="geometry">
            <mxRectangle width="120" height="30" as="alternateBounds" />
          </mxGeometry>
        </mxCell>
        <mxCell id="Owg_yIhiABoJmYMIohiS-53" value="" style="shape=tableRow;horizontal=0;startSize=0;swimlaneHead=0;swimlaneBody=0;fillColor=none;collapsible=0;dropTarget=0;points=[[0,0.5],[1,0.5]];portConstraint=eastwest;top=0;left=0;right=0;bottom=0;html=1;" parent="Owg_yIhiABoJmYMIohiS-43" vertex="1">
          <mxGeometry y="120" width="180" height="30" as="geometry" />
        </mxCell>
        <mxCell id="Owg_yIhiABoJmYMIohiS-54" value="" style="shape=partialRectangle;connectable=0;fillColor=none;top=0;left=0;bottom=0;right=0;editable=1;overflow=hidden;html=1;whiteSpace=wrap;" parent="Owg_yIhiABoJmYMIohiS-53" vertex="1">
          <mxGeometry width="60" height="30" as="geometry">
            <mxRectangle width="60" height="30" as="alternateBounds" />
          </mxGeometry>
        </mxCell>
        <mxCell id="Owg_yIhiABoJmYMIohiS-55" value="Row 4" style="shape=partialRectangle;connectable=0;fillColor=none;top=0;left=0;bottom=0;right=0;align=left;spacingLeft=6;overflow=hidden;html=1;whiteSpace=wrap;" parent="Owg_yIhiABoJmYMIohiS-53" vertex="1">
          <mxGeometry x="60" width="120" height="30" as="geometry">
            <mxRectangle width="120" height="30" as="alternateBounds" />
          </mxGeometry>
        </mxCell>
        <mxCell id="Owg_yIhiABoJmYMIohiS-56" value="Modelo Lógico:" style="text;html=1;align=center;verticalAlign=middle;whiteSpace=wrap;rounded=0;" parent="1" vertex="1">
          <mxGeometry x="20" y="430" width="92" height="30" as="geometry" />
        </mxCell>
        <mxCell id="PVsq_VbaXBjektkbB96u-2" value="Projeto" style="rhombus;whiteSpace=wrap;html=1;" vertex="1" parent="1">
          <mxGeometry x="336" y="190" width="116" height="60" as="geometry" />
        </mxCell>
        <mxCell id="Owg_yIhiABoJmYMIohiS-3" value="Tarefas" style="rounded=0;whiteSpace=wrap;html=1;" parent="1" vertex="1">
          <mxGeometry x="100" y="190" width="120" height="60" as="geometry" />
        </mxCell>
        <mxCell id="Owg_yIhiABoJmYMIohiS-11" value="1,1" style="text;html=1;align=center;verticalAlign=middle;whiteSpace=wrap;rounded=0;" parent="1" vertex="1">
          <mxGeometry x="205" y="200" width="60" height="30" as="geometry" />
        </mxCell>
        <mxCell id="Owg_yIhiABoJmYMIohiS-32" value="" style="endArrow=none;html=1;rounded=0;entryX=0.25;entryY=1;entryDx=0;entryDy=0;startArrow=oval;startFill=1;" parent="1" edge="1">
          <mxGeometry width="50" height="50" relative="1" as="geometry">
            <mxPoint x="103" y="300" as="sourcePoint" />
            <mxPoint x="101" y="250" as="targetPoint" />
          </mxGeometry>
        </mxCell>
        <mxCell id="Owg_yIhiABoJmYMIohiS-33" value="id" style="edgeLabel;html=1;align=center;verticalAlign=middle;resizable=0;points=[];" parent="Owg_yIhiABoJmYMIohiS-32" vertex="1" connectable="0">
          <mxGeometry x="0.0995" relative="1" as="geometry">
            <mxPoint as="offset" />
          </mxGeometry>
        </mxCell>
        <mxCell id="Owg_yIhiABoJmYMIohiS-34" value="" style="endArrow=none;html=1;rounded=0;entryX=0.25;entryY=1;entryDx=0;entryDy=0;startArrow=oval;startFill=0;" parent="1" target="Owg_yIhiABoJmYMIohiS-3" edge="1">
          <mxGeometry width="50" height="50" relative="1" as="geometry">
            <mxPoint x="132" y="320" as="sourcePoint" />
            <mxPoint x="372" y="260" as="targetPoint" />
          </mxGeometry>
        </mxCell>
        <mxCell id="Owg_yIhiABoJmYMIohiS-35" value="nome" style="edgeLabel;html=1;align=center;verticalAlign=middle;resizable=0;points=[];" parent="Owg_yIhiABoJmYMIohiS-34" vertex="1" connectable="0">
          <mxGeometry x="0.0377" y="-1" relative="1" as="geometry">
            <mxPoint as="offset" />
          </mxGeometry>
        </mxCell>
        <mxCell id="Owg_yIhiABoJmYMIohiS-36" value="" style="endArrow=none;html=1;rounded=0;entryX=0.5;entryY=1;entryDx=0;entryDy=0;startArrow=oval;startFill=0;" parent="1" edge="1">
          <mxGeometry width="50" height="50" relative="1" as="geometry">
            <mxPoint x="168" y="330" as="sourcePoint" />
            <mxPoint x="168" y="250" as="targetPoint" />
          </mxGeometry>
        </mxCell>
        <mxCell id="Owg_yIhiABoJmYMIohiS-37" value="dataPrazo" style="edgeLabel;html=1;align=center;verticalAlign=middle;resizable=0;points=[];" parent="Owg_yIhiABoJmYMIohiS-36" vertex="1" connectable="0">
          <mxGeometry x="-0.0917" y="-1" relative="1" as="geometry">
            <mxPoint as="offset" />
          </mxGeometry>
        </mxCell>
        <mxCell id="Owg_yIhiABoJmYMIohiS-38" value="" style="endArrow=none;html=1;rounded=0;entryX=1;entryY=1;entryDx=0;entryDy=0;startArrow=oval;startFill=0;" parent="1" edge="1">
          <mxGeometry width="50" height="50" relative="1" as="geometry">
            <mxPoint x="207" y="340" as="sourcePoint" />
            <mxPoint x="204.9999999999999" y="250" as="targetPoint" />
          </mxGeometry>
        </mxCell>
        <mxCell id="Owg_yIhiABoJmYMIohiS-40" value="alarme" style="edgeLabel;html=1;align=center;verticalAlign=middle;resizable=0;points=[];" parent="Owg_yIhiABoJmYMIohiS-38" vertex="1" connectable="0">
          <mxGeometry x="0.548" relative="1" as="geometry">
            <mxPoint as="offset" />
          </mxGeometry>
        </mxCell>
        <mxCell id="Owg_yIhiABoJmYMIohiS-5" value="Usuário" style="rounded=0;whiteSpace=wrap;html=1;" parent="1" vertex="1">
          <mxGeometry x="574" y="190" width="120" height="60" as="geometry" />
        </mxCell>
        <mxCell id="Owg_yIhiABoJmYMIohiS-14" value="0,n" style="text;html=1;align=center;verticalAlign=middle;whiteSpace=wrap;rounded=0;" parent="1" vertex="1">
          <mxGeometry x="528" y="200" width="60" height="30" as="geometry" />
        </mxCell>
        <mxCell id="Owg_yIhiABoJmYMIohiS-16" value="" style="endArrow=none;html=1;rounded=0;entryX=0.25;entryY=1;entryDx=0;entryDy=0;startArrow=oval;startFill=0;" parent="1" target="Owg_yIhiABoJmYMIohiS-5" edge="1">
          <mxGeometry width="50" height="50" relative="1" as="geometry">
            <mxPoint x="604" y="300" as="sourcePoint" />
            <mxPoint x="364" y="160" as="targetPoint" />
          </mxGeometry>
        </mxCell>
        <mxCell id="Owg_yIhiABoJmYMIohiS-17" value="nome" style="edgeLabel;html=1;align=center;verticalAlign=middle;resizable=0;points=[];" parent="Owg_yIhiABoJmYMIohiS-16" vertex="1" connectable="0">
          <mxGeometry x="0.24" y="-1" relative="1" as="geometry">
            <mxPoint as="offset" />
          </mxGeometry>
        </mxCell>
        <mxCell id="Owg_yIhiABoJmYMIohiS-18" value="" style="endArrow=none;html=1;rounded=0;entryX=0.5;entryY=1;entryDx=0;entryDy=0;startArrow=oval;startFill=0;" parent="1" target="Owg_yIhiABoJmYMIohiS-5" edge="1">
          <mxGeometry width="50" height="50" relative="1" as="geometry">
            <mxPoint x="634" y="310" as="sourcePoint" />
            <mxPoint x="354" y="290" as="targetPoint" />
          </mxGeometry>
        </mxCell>
        <mxCell id="Owg_yIhiABoJmYMIohiS-19" value="email" style="edgeLabel;html=1;align=center;verticalAlign=middle;resizable=0;points=[];" parent="Owg_yIhiABoJmYMIohiS-18" vertex="1" connectable="0">
          <mxGeometry y="-1" relative="1" as="geometry">
            <mxPoint as="offset" />
          </mxGeometry>
        </mxCell>
        <mxCell id="Owg_yIhiABoJmYMIohiS-20" value="" style="endArrow=none;html=1;rounded=0;entryX=0.75;entryY=1;entryDx=0;entryDy=0;startArrow=oval;startFill=1;" parent="1" target="Owg_yIhiABoJmYMIohiS-5" edge="1">
          <mxGeometry width="50" height="50" relative="1" as="geometry">
            <mxPoint x="664" y="330" as="sourcePoint" />
            <mxPoint x="674" y="260" as="targetPoint" />
          </mxGeometry>
        </mxCell>
        <mxCell id="Owg_yIhiABoJmYMIohiS-21" value="id" style="edgeLabel;html=1;align=center;verticalAlign=middle;resizable=0;points=[];" parent="Owg_yIhiABoJmYMIohiS-20" vertex="1" connectable="0">
          <mxGeometry x="-0.2167" relative="1" as="geometry">
            <mxPoint as="offset" />
          </mxGeometry>
        </mxCell>
        <mxCell id="Owg_yIhiABoJmYMIohiS-28" value="" style="endArrow=none;html=1;rounded=0;entryX=1;entryY=1;entryDx=0;entryDy=0;startArrow=oval;startFill=0;" parent="1" target="Owg_yIhiABoJmYMIohiS-5" edge="1">
          <mxGeometry width="50" height="50" relative="1" as="geometry">
            <mxPoint x="694" y="340" as="sourcePoint" />
            <mxPoint x="644" y="260" as="targetPoint" />
          </mxGeometry>
        </mxCell>
        <mxCell id="Owg_yIhiABoJmYMIohiS-29" value="numCell" style="edgeLabel;html=1;align=center;verticalAlign=middle;resizable=0;points=[];" parent="Owg_yIhiABoJmYMIohiS-28" vertex="1" connectable="0">
          <mxGeometry x="0.4185" relative="1" as="geometry">
            <mxPoint as="offset" />
          </mxGeometry>
        </mxCell>
      </root>
    </mxGraphModel>
  </diagram>
</mxfile>
